<?xml version="1.0" encoding="utf-8"?>
<!-- Generator: Adobe Illustrator 16.0.0, SVG Export Plug-In . SVG Version: 6.00 Build 0)  -->
<!DOCTYPE svg PUBLIC "-//W3C//DTD SVG 1.1//EN" "http://www.w3.org/Graphics/SVG/1.1/DTD/svg11.dtd">
<svg version="1.1" id="Layer_1" xmlns="http://www.w3.org/2000/svg" xmlns:xlink="http://www.w3.org/1999/xlink" x="0px" y="0px"
	 width="259.589px" height="47.946px" viewBox="0 0 259.589 47.946" enable-background="new 0 0 259.589 47.946"
	 xml:space="preserve">
<path fill="#F04B23" d="M6.592,44.059V5.645h9.488c5.728,0,8.736,3.008,8.736,8.851v20.19c0,6.364-3.008,9.373-8.736,9.373H6.592z
	 M15.733,39.372c3.124,0,3.935-2.313,3.935-6.132V16.347c0-3.703-0.811-6.017-4.224-6.017h-3.761v29.042H15.733z"/>
<path fill="#F04B23" d="M28.001,44.059V5.645h5.207v38.415H28.001z"/>
<path fill="#F04B23" d="M36.333,44.059V5.645h5.207v33.67h9.488v4.744H36.333z"/>
<path fill="#F04B23" d="M53.633,44.059V5.645h5.207v33.67h9.488v4.744H53.633z"/>
<path fill="#F04B23" d="M70.934,44.059V5.645h5.207v38.415H70.934z"/>
<path fill="#F04B23" d="M92.687,44.059l-8.793-29.737h-0.231c0.115,2.835,0.173,5.554,0.173,8.1v21.638h-4.57V5.645h6.827
	l8.042,27.595h0.231c-0.116-3.643-0.173-6.768-0.173-9.313V5.645h4.57v38.415H92.687z"/>
<path fill="#F04B23" d="M116.411,44.059l-0.231-2.95h-0.231c-0.983,1.851-2.487,3.298-5.785,3.298c-5.207,0-8.216-3.472-8.216-9.721
	V15.19c0-6.249,3.125-9.893,8.91-9.893c5.843,0,8.967,3.76,8.967,10.008v2.198h-4.917v-2.661c0-3.009-1.331-4.687-3.935-4.687
	c-2.545,0-3.876,1.62-3.876,4.628v20.248c0,3.01,1.331,4.571,3.761,4.571c2.198,0,3.586-1.215,4.05-3.875v-7.58h-4.34v-4.628h9.257
	v20.538H116.411z"/>
<path fill="#F04B23" d="M136.257,44.059v-18.05h-8.1v18.05h-5.207V5.645h5.207V21.38h8.1V5.645h5.148v38.415H136.257z"/>
<path fill="#FFFFFF" d="M144.591,44.059V5.645h9.487c5.728,0,8.735,3.008,8.735,8.851v20.19c0,6.364-3.008,9.373-8.735,9.373
	H144.591z M153.73,39.372c3.126,0,3.935-2.313,3.935-6.132V16.347c0-3.703-0.809-6.017-4.223-6.017h-3.761v29.042H153.73z"/>
<path fill="#FFFFFF" d="M166,44.059V5.645h13.884v4.686h-8.794v11.224h8.042v4.745h-8.042v13.073h9.258v4.688H166z"/>
<path fill="#FFFFFF" d="M196.142,16.983v-2.198c0-2.835-1.213-4.628-4.106-4.628c-2.778,0-4.051,1.735-4.051,3.992v1.504
	c0,1.678,0.464,2.661,2.257,4.108c2.604,2.024,6.537,4.107,8.679,6.016c1.793,1.562,2.777,3.414,2.777,6.942v2.374
	c0,6.017-2.836,9.314-9.547,9.314s-9.486-3.356-9.486-9.662v-2.198h4.916v2.256c0,3.124,1.33,4.802,4.455,4.802
	c2.72,0,4.223-1.33,4.223-4.396v-1.737c0-2.372-0.578-3.354-2.486-4.859c-2.662-2.198-5.611-3.645-7.985-5.959
	c-1.909-1.967-2.95-3.992-2.95-7.058v-1.677c0-5.091,2.778-8.62,9.141-8.62c7.001,0,9.024,4.223,9.024,10.008v1.678H196.142z"/>
<path fill="#FFFFFF" d="M204.593,44.059V5.645h5.206v38.415H204.593z"/>
<path fill="#FFFFFF" d="M227.387,44.059l-0.23-2.95h-0.23c-0.984,1.851-2.489,3.298-5.787,3.298c-5.206,0-8.215-3.472-8.215-9.721
	V15.19c0-6.249,3.124-9.893,8.91-9.893c5.843,0,8.967,3.76,8.967,10.008v2.198h-4.918v-2.661c0-3.009-1.33-4.687-3.933-4.687
	c-2.546,0-3.878,1.62-3.878,4.628v20.248c0,3.01,1.332,4.571,3.762,4.571c2.198,0,3.587-1.215,4.049-3.875v-7.58h-4.339v-4.628
	h9.257v20.538H227.387z"/>
<path fill="#FFFFFF" d="M247.35,44.059l-8.794-29.737h-0.232c0.116,2.835,0.174,5.554,0.174,8.1v21.638h-4.57V5.645h6.826
	l8.042,27.595h0.231c-0.115-3.643-0.174-6.768-0.174-9.313V5.645h4.571v38.415H247.35z"/>
</svg>
